<?xml version="1.0" encoding="utf-8"?>
<!-- Generator: Adobe Illustrator 15.1.0, SVG Export Plug-In . SVG Version: 6.00 Build 0)  -->
<!DOCTYPE svg PUBLIC "-//W3C//DTD SVG 1.1//EN" "http://www.w3.org/Graphics/SVG/1.1/DTD/svg11.dtd">
<svg version="1.1" id="Layer_1" xmlns="http://www.w3.org/2000/svg" xmlns:xlink="http://www.w3.org/1999/xlink" x="0px" y="0px"
	 width="612px" height="792px" viewBox="0 0 612 792" enable-background="new 0 0 612 792" xml:space="preserve">
<path d="M288.592,207.75c-12.172,0-22.006,9.817-22.074,21.981v0.102c0,12.198,9.877,22.066,22.074,22.066
	c12.198,0,22.074-9.877,22.074-22.066v-0.102C310.599,217.568,300.755,207.75,288.592,207.75z"/>
<path stroke="#FFFFFF" stroke-width="4" stroke-miterlimit="10" d="M270.972,367.049"/>
<path d="M197.361,353.406c-0.06,1.258-0.145,2.533-0.255,3.757c0,0.042,0,0.042,0,0.085c-4.769,61.888-92.573,58.641-92.573,58.641
	s-88.137,2.891-92.676-59.355c-0.06-0.859-0.11-1.76-0.145-2.618c0.196-4.522,2.865-8.228,6.265-8.679h173.136
	C194.378,345.697,196.979,349.097,197.361,353.406z"/>
<path d="M594.957,411.062c-0.059,1.259-0.144,2.542-0.255,3.758c0,0.042,0,0.042,0,0.093c-4.769,61.889-92.573,58.642-92.573,58.642
	s-88.137,2.873-92.676-59.363c-0.059-0.859-0.11-1.76-0.136-2.618c0.188-4.514,2.864-8.229,6.256-8.679H588.71
	C591.982,403.353,594.575,406.761,594.957,411.062z"/>
<path d="M590.878,378.133h-82.62c-22.381-74.426-80.079-131.843-154.505-153.748c-3.511-1.104-7.013-2.065-10.522-2.881
	c-4.004-26.647-26.929-46.954-54.672-46.954c-27.685,0-50.601,20.307-54.596,46.954c-3.655,0.884-7.097,1.776-10.54,2.822
	c-52.326,15.495-97.554,49.292-127.44,95.353l-0.349,0.552c-0.068,0.068-0.136,0.204-0.136,0.281H15.844
	c-3.094,0-5.644,3.298-5.644,7.429c0,4.063,2.55,7.37,5.644,7.37h177.429c3.094,0,5.567-3.307,5.567-7.37
	c0-4.131-2.473-7.429-5.567-7.429H112.03c28.016-39.865,68.646-69.199,115.32-82.96c2.065-0.621,4.199-1.241,6.333-1.794
	c2.958,27.753,26.375,49.368,54.876,49.368c28.577,0,51.977-21.615,54.927-49.368c2.142,0.553,4.207,1.173,6.35,1.794
	c68.569,20.238,122.128,72.496,143.956,140.59h-80.343c-3.094,0-5.644,3.298-5.644,7.438c0,4.123,2.55,7.429,5.644,7.429h177.43
	c3.103,0,5.567-3.306,5.567-7.429C596.445,381.431,593.98,378.133,590.878,378.133z M329.8,231.202
	c-0.697,22.168-18.87,39.865-41.242,39.865c-22.313,0-40.486-17.697-41.174-39.865c-0.068-0.408-0.068-0.893-0.068-1.377
	c0-22.789,18.454-41.31,41.242-41.31c22.856,0,41.31,18.521,41.31,41.31C329.868,230.31,329.868,230.794,329.8,231.202z"/>
</svg>
