<!--?xml version="1.0" encoding="utf-8"?-->
<!-- Generator: Adobe Illustrator 16.0.0, SVG Export Plug-In . SVG Version: 6.00 Build 0)  -->

<svg version="1.1" id="Layer_1" xmlns="http://www.w3.org/2000/svg" xmlns:xlink="http://www.w3.org/1999/xlink" x="0px" y="0px" width="850.391px" height="850.391px" viewBox="0 0 850.391 850.391" enable-background="new 0 0 850.391 850.391" xml:space="preserve">
<g>
	<g>
		<path fill="none" stroke="#FFFFFF" stroke-width="9" stroke-miterlimit="10" d="M189.122,253.26
			c11.568,0,20.74-8.765,22.177-19.977c10.404-3.621,21.199-8.849,32.411-14.51c23.248-11.756,49.573-25.05,77.812-25.05
			c20.953,0,35.777,7.259,46.352,15.538c-2.508,6.639-4.055,13.735-4.055,21.232c0,33.475,27.209,60.691,60.684,60.691
			c33.474,0,60.69-27.209,60.69-60.691c0-7.472-1.556-14.535-4.029-21.14c10.608-8.33,25.492-15.632,46.317-15.632
			c28.246,0,54.571,13.294,77.811,25.05c11.203,5.661,22.017,10.889,32.411,14.51c1.438,11.204,10.602,19.976,22.187,19.976
			c12.581,0,22.755-10.166,22.755-22.764c0-12.58-10.166-22.755-22.755-22.755c-8.253,0-15.121,4.599-19.108,11.127
			c-8.823-3.256-18.395-7.938-28.856-13.227c-24.71-12.503-52.693-26.64-84.458-26.64c-23.555,0-40.563,7.82-53.094,17.068
			c-6.468-9.333-15.452-16.805-26.01-21.319c6.725-6.375,11.008-15.231,11.008-25.203c0.018-19.27-34.868-64.245-34.868-64.245
			s-34.885,44.976-34.885,64.254c0,9.971,4.284,18.827,11.008,25.202c-10.573,4.515-19.542,11.985-26.011,21.318
			c-12.528-9.248-29.538-17.068-53.101-17.068c-31.748,0-59.73,14.137-84.449,26.641c-10.455,5.287-20.026,9.971-28.851,13.226
			c-4.004-6.527-10.862-11.126-19.107-11.126c-12.58,0-22.765,10.166-22.765,22.755C166.358,243.094,176.533,253.26,189.122,253.26z
			 M424.5,110.423c10.924,16.167,20.172,32.931,20.172,39.136c0,11.127-9.044,20.171-20.172,20.171
			c-11.117,0-20.171-9.044-20.171-20.171C404.329,143.353,413.587,126.59,424.5,110.423z M424.5,184.527
			c25.349,0,45.979,20.63,45.979,45.969s-20.63,45.979-45.979,45.979c-25.33,0-45.969-20.639-45.969-45.979
			C378.531,205.157,399.17,184.527,424.5,184.527z" class="aMwXPhII_0"></path>
		<path fill="none" stroke="#FFFFFF" stroke-width="9" stroke-miterlimit="10" d="M336.226,510.313h-41.838l-98.382-260.846
			c-2.185-5.745-11.603-5.745-13.786,0L83.83,510.313H41.992c21.582,60.717,78.992,104.535,147.13,104.535
			C257.242,614.849,314.652,571.03,336.226,510.313z M189.122,272.878l89.559,237.436H99.547L189.122,272.878z M189.122,600.136
			c-52.387,0-100.106-29.453-124.563-75.116h249.124C289.229,570.69,241.5,600.136,189.122,600.136z" class="aMwXPhII_1"></path>
		<path fill="none" stroke="#FFFFFF" stroke-width="9" stroke-miterlimit="10" d="M765.171,510.313l-98.382-260.846
			c-2.185-5.745-11.603-5.745-13.796,0l-98.381,260.846h-41.838c21.582,60.717,78.992,104.535,147.13,104.535
			c68.12,0,125.53-43.818,147.104-104.535H765.171L765.171,510.313z M659.896,272.878l89.558,237.436H570.329L659.896,272.878z
			 M659.896,600.136c-52.387,0-100.106-29.453-124.563-75.116h249.123C760.011,570.69,712.273,600.136,659.896,600.136z" class="aMwXPhII_2"></path>
		<path fill="none" stroke="#FFFFFF" stroke-width="9" stroke-miterlimit="10" d="M571.631,706.762H512.4
			c-1.581-36.713-25.397-67.381-58.473-79.138V282.688c0.119-0.094,0.194-0.18,0.313-0.265h-14.969c0,0.095-0.06,0.18-0.06,0.265
			v344.946c0,6.229,3.909,11.789,9.792,13.854c28.271,10.057,47.414,35.947,48.681,65.919c0.34,7.871,6.843,14.076,14.705,14.076
			h59.229c8.102,0,14.705,6.605,14.705,14.706v14.705h-323.65v-14.705c0-8.101,6.604-14.706,14.715-14.706h59.221
			c7.871,0,14.356-6.205,14.705-14.076c1.258-29.972,20.4-55.862,48.681-65.919c5.892-2.064,9.792-7.616,9.792-13.854V282.688
			c0-0.094-0.06-0.18-0.06-0.265h-14.969c0.119,0.095,0.194,0.18,0.313,0.265v344.946c-33.074,11.755-56.892,42.415-58.473,79.137
			h-59.222c-16.21,0-29.428,13.227-29.428,29.427v29.429h353.099v-29.429C601.05,719.988,587.831,706.762,571.631,706.762z" class="aMwXPhII_3"></path>
	</g>
</g>
<style>.aMwXPhII_0{stroke-dasharray:1894 1896;stroke-dashoffset:1895;animation:aMwXPhII_draw 4000ms linear 0ms forwards;}.aMwXPhII_1{stroke-dasharray:2285 2287;stroke-dashoffset:2286;animation:aMwXPhII_draw 4000ms linear 666ms forwards;}.aMwXPhII_2{stroke-dasharray:2285 2287;stroke-dashoffset:2286;animation:aMwXPhII_draw 4000ms linear 1333ms forwards;}.aMwXPhII_3{stroke-dasharray:3016 3018;stroke-dashoffset:3017;animation:aMwXPhII_draw 4000ms linear 2000ms forwards;}@keyframes aMwXPhII_draw{100%{stroke-dashoffset:0;}}@keyframes aMwXPhII_fade{0%{stroke-opacity:1;}96.07843137254902%{stroke-opacity:1;}100%{stroke-opacity:0;}}</style></svg>
