<?xml version="1.0" encoding="utf-8"?>
<!-- Generator: Adobe Illustrator 15.1.0, SVG Export Plug-In . SVG Version: 6.00 Build 0)  -->
<!DOCTYPE svg PUBLIC "-//W3C//DTD SVG 1.1//EN" "http://www.w3.org/Graphics/SVG/1.1/DTD/svg11.dtd">
<svg version="1.1" id="Layer_1" xmlns="http://www.w3.org/2000/svg" xmlns:xlink="http://www.w3.org/1999/xlink" x="0px" y="0px"
	 width="850.39px" height="850.39px" viewBox="0 0 850.39 850.39" enable-background="new 0 0 850.39 850.39" xml:space="preserve">
<g>
	<g>
		<path fill="#FFFFFF" d="M189.122,253.26c11.568,0,20.74-8.764,22.177-19.976c10.404-3.621,21.199-8.849,32.411-14.51
			c23.248-11.756,49.573-25.05,77.811-25.05c20.953,0,35.777,7.259,46.352,15.538c-2.508,6.639-4.055,13.736-4.055,21.233
			c0,33.474,27.209,60.691,60.683,60.691s60.691-27.209,60.691-60.691c0-7.472-1.556-14.535-4.029-21.14
			c10.608-8.33,25.492-15.632,46.317-15.632c28.246,0,54.571,13.294,77.811,25.05c11.203,5.661,22.016,10.889,32.411,14.51
			c1.437,11.204,10.601,19.976,22.186,19.976c12.581,0,22.755-10.166,22.755-22.764c0-12.58-10.166-22.755-22.755-22.755
			c-8.253,0-15.121,4.599-19.108,11.127c-8.823-3.256-18.395-7.939-28.857-13.227c-24.71-12.503-52.693-26.639-84.458-26.639
			c-23.554,0-40.563,7.82-53.093,17.068c-6.468-9.333-15.453-16.805-26.01-21.319c6.724-6.375,11.008-15.232,11.008-25.203
			c0.017-19.27-34.868-64.245-34.868-64.245s-34.885,44.975-34.885,64.253c0,9.971,4.284,18.828,11.008,25.203
			c-10.574,4.514-19.542,11.985-26.011,21.318c-12.529-9.248-29.538-17.068-53.101-17.068c-31.748,0-59.73,14.136-84.449,26.64
			c-10.455,5.287-20.026,9.971-28.85,13.226c-4.004-6.528-10.863-11.126-19.108-11.126c-12.58,0-22.764,10.166-22.764,22.755
			C166.358,243.094,176.533,253.26,189.122,253.26z M424.5,110.423c10.923,16.167,20.171,32.93,20.171,39.135
			c0,11.127-9.044,20.171-20.171,20.171c-11.118,0-20.171-9.044-20.171-20.171C404.329,143.353,413.586,126.59,424.5,110.423z
			 M424.5,184.527c25.348,0,45.978,20.63,45.978,45.969c0,25.339-20.63,45.978-45.978,45.978c-25.331,0-45.969-20.638-45.969-45.978
			C378.531,205.157,399.169,184.527,424.5,184.527z"/>
		<path fill="#FFFFFF" d="M336.226,510.313h-41.838l-98.381-260.845c-2.185-5.746-11.603-5.746-13.787,0L83.83,510.313H41.992
			c21.582,60.717,78.992,104.535,147.13,104.535C257.242,614.849,314.652,571.03,336.226,510.313z M189.122,272.878l89.558,237.435
			H99.547L189.122,272.878z M189.122,600.136c-52.387,0-100.107-29.453-124.563-75.116h249.124
			C289.229,570.69,241.5,600.136,189.122,600.136z"/>
		<path fill="#FFFFFF" d="M765.17,510.313l-98.381-260.845c-2.185-5.746-11.603-5.746-13.796,0l-98.381,260.845h-41.838
			c21.582,60.717,78.992,104.535,147.13,104.535c68.12,0,125.53-43.818,147.104-104.535H765.17z M659.896,272.878l89.558,237.435
			H570.329L659.896,272.878z M659.896,600.136c-52.387,0-100.106-29.453-124.562-75.116h249.123
			C760.011,570.69,712.273,600.136,659.896,600.136z"/>
		<path fill="#FFFFFF" d="M571.63,706.762H512.4c-1.581-36.713-25.398-67.381-58.473-79.137V282.688
			c0.119-0.094,0.195-0.179,0.314-0.264h-14.969c0,0.094-0.06,0.179-0.06,0.264v344.946c0,6.23,3.91,11.789,9.792,13.854
			c28.271,10.056,47.414,35.947,48.681,65.919c0.34,7.871,6.843,14.076,14.705,14.076h59.229c8.101,0,14.705,6.605,14.705,14.706
			v14.705H262.674v-14.705c0-8.101,6.604-14.706,14.714-14.706h59.221c7.871,0,14.356-6.205,14.705-14.076
			c1.258-29.972,20.4-55.863,48.681-65.919c5.891-2.065,9.792-7.616,9.792-13.854V282.688c0-0.094-0.06-0.179-0.06-0.264h-14.969
			c0.119,0.094,0.195,0.179,0.314,0.264v344.946c-33.074,11.755-56.892,42.415-58.473,79.137h-59.221
			c-16.21,0-29.428,13.226-29.428,29.427v29.428h353.098v-29.428C601.049,719.988,587.831,706.762,571.63,706.762z"/>
	</g>
</g>
</svg>
